<svg width="24" height="14" viewBox="0 0 24 14" fill="none" xmlns="http://www.w3.org/2000/svg">
<g clip-path="url(#clip0_103_521)">
<path d="M13.2975 4.94952C12.858 3.49516 12.0483 2.30571 10.8643 1.39181C9.99049 0.717288 9.01224 0.27683 7.92853 0.107668C7.58625 0.0544722 7.23983 0.0204271 6.89445 0.00340451C6.65971 -0.0082985 6.42187 0.0119158 6.18817 0.0374497C5.90069 0.0683031 5.61115 0.101284 5.32988 0.166183C4.24823 0.41301 3.27723 0.900281 2.42825 1.63544C1.22354 2.67914 0.468662 4.00477 0.131551 5.58149C0.0498589 5.96556 -0.00391335 6.35814 0.000222974 6.75498C0.000222974 6.91882 0.000222974 7.08267 0.000222974 7.24651C0.00746155 7.36354 0.0115979 7.4795 0.0209046 7.59653C0.0529611 8.00827 0.121211 8.41362 0.227721 8.81152C0.629979 10.318 1.42829 11.5543 2.62059 12.5203C3.36409 13.1225 4.20376 13.531 5.11479 13.7821C5.32781 13.8406 5.54807 13.8789 5.7673 13.9098C6.04753 13.9491 6.3288 13.9864 6.61111 13.997C6.84584 14.0066 7.08161 13.9747 7.31635 13.9662C7.68759 13.9513 8.05055 13.8842 8.40834 13.7928C9.75989 13.447 10.9088 12.7469 11.8415 11.683C12.5819 10.8393 13.0927 9.86692 13.3688 8.76258C13.4971 8.24978 13.5746 7.73165 13.5891 7.20502C13.5984 6.88478 13.5819 6.56241 13.5529 6.24324C13.5126 5.80385 13.4226 5.3719 13.2944 4.94952H13.2975Z" fill="white"/>
<path d="M21.0041 5.54612C20.9348 4.98331 20.8324 4.42795 20.6814 3.88216C20.486 3.17466 20.2182 2.49801 19.8293 1.87775C19.516 1.37771 19.1396 0.939382 18.6329 0.637231C18.1965 0.376573 17.7291 0.276565 17.2286 0.377637C16.7571 0.472325 16.3641 0.72128 16.0239 1.05854C15.2173 1.8586 14.7965 2.87996 14.4966 3.96195C14.3911 4.3439 14.3249 4.73861 14.2577 5.13013C14.205 5.4376 14.1698 5.74826 14.1429 6.05892C14.1222 6.29511 14.1264 6.53342 14.1191 6.77068C14.1191 6.92813 14.1191 7.08666 14.1191 7.24412C14.1315 7.50477 14.1388 7.76543 14.1595 8.02503C14.1802 8.28569 14.2101 8.54528 14.2474 8.80381C14.3167 9.29321 14.419 9.77516 14.5597 10.2486C14.7044 10.7348 14.8792 11.2072 15.1119 11.6562C15.4159 12.2434 15.7861 12.7775 16.3114 13.1818C16.6444 13.4382 17.0156 13.6116 17.4282 13.6489C17.6412 13.668 17.8656 13.6361 18.0755 13.5861C18.5822 13.4659 18.9845 13.1563 19.334 12.7722C19.8056 12.253 20.1344 11.6423 20.3898 10.987C20.6308 10.3709 20.8034 9.7358 20.9006 9.0783C20.9503 8.7421 21.003 8.40697 21.0382 8.06971C21.0651 7.81437 21.0671 7.55584 21.0795 7.29838V6.68024C21.0671 6.48023 21.0547 6.28128 21.0413 6.08126C21.0289 5.90253 21.0247 5.72272 21.002 5.54505L21.0041 5.54612Z" fill="white"/>
<path d="M23.9839 6.32177C23.9777 6.00366 23.9643 5.68662 23.9519 5.36851C23.9467 5.23126 23.9415 5.09296 23.9302 4.95571C23.9105 4.73016 23.8847 4.50568 23.8619 4.28119C23.8433 4.10139 23.8319 3.91946 23.8019 3.74073C23.7451 3.39602 23.6778 3.05344 23.6168 2.7098C23.5496 2.33743 23.4452 1.9757 23.2994 1.6278C23.2177 1.4331 23.1225 1.24692 22.9623 1.10542C22.8237 0.982005 22.6644 0.974558 22.53 1.10329C22.4452 1.18415 22.3677 1.27884 22.3108 1.38204C22.0016 1.94059 21.8816 2.56191 21.771 3.18324C21.7069 3.53965 21.6634 3.90138 21.6241 4.26204C21.5818 4.65569 21.5507 5.05146 21.5228 5.44724C21.5042 5.70683 21.497 5.96749 21.4887 6.22815C21.4825 6.42072 21.4835 6.61435 21.4814 6.80798C21.4814 6.94097 21.4814 7.07502 21.4814 7.20801C21.4887 7.5091 21.4918 7.80912 21.5042 8.11021C21.5166 8.41236 21.5363 8.71344 21.5559 9.01453C21.5704 9.22731 21.588 9.44116 21.6107 9.65394C21.6417 9.94758 21.6717 10.2423 21.7172 10.5338C21.7575 10.7934 21.8072 11.053 21.8723 11.3073C21.9561 11.6371 22.0512 11.9658 22.1577 12.2892C22.2281 12.5031 22.3356 12.701 22.4959 12.8627C22.6386 13.0063 22.8475 13.0127 22.9871 12.8627C23.0491 12.7957 23.1091 12.7233 23.1567 12.6446C23.3614 12.3052 23.469 11.9254 23.561 11.5424C23.6251 11.2732 23.6747 10.9998 23.7202 10.7274C23.773 10.4114 23.8226 10.0955 23.8598 9.77735C23.8981 9.44967 23.925 9.11986 23.9477 8.79005C23.9674 8.50598 23.9746 8.22192 23.987 7.93679C23.9922 7.82933 24.0015 7.72188 24.0005 7.61442C23.9974 7.18354 23.9932 6.75372 23.9839 6.32284V6.32177Z" fill="white"/>
</g>
<defs>
<clipPath id="clip0_103_521">
<rect width="24" height="14" fill="white"/>
</clipPath>
</defs>
</svg>
